<?xml version="1.0" encoding="UTF-8"?>
<svg id="Livello_1" data-name="Livello 1" xmlns="http://www.w3.org/2000/svg" viewBox="0 0 113.39 113.39">
  <defs>
    <style>
      .cls-1 {
        fill: #fff;
      }
    </style>
  </defs>
  <rect width="113.39" height="113.39"/>
  <path class="cls-1" d="M38.3,16.31l38.52.03-7.04,19.37h-23.14l-8.34-19.4Z"/>
  <path d="M50.34,30.09l-3.51-8.16,21.97.02-2.96,8.14h-15.51Z"/>
  <path class="cls-1" d="M51.59,35.71v4.16l7.38,7.96,7.09-7.23v-4.89"/>
  <path class="cls-1" d="M98.26,50.91h-11.06s-7.75,0-7.75,0l-6.98,34.15h7.75s2.38-11.65,2.38-11.65h9.75c5.93,0,11.04-4.16,12.22-9.97l.86-4.21c.48-4.09-2.45-7.79-6.54-8.27-.34-.04-.68-.06-1.02-.05"/>
  <path class="cls-1" d="M21.12,50.87h16.09s.58.09.58.09l.53.08.48.09.45.09.41.1.38.1.35.11.32.11.3.12.28.13.26.13.24.14.22.15.21.15.38.34.32.37.28.42.12.23.11.25.1.26.09.28.08.3.07.32.06.34.05.37.04.4.03.44.02.47v.52s-1.31,5.87-1.31,5.87h0l-.08.22-.07.18-.07.16-.07.14-.13.23-.13.2-.28.33-.16.16-.18.16-.21.16-.24.18-.29.2-.17.11-.18.12-.21.13-.23.14-.27.16-.3.18-.35.21-.2.12-.22.13-.24.14-.26.15-.29.17-.32.18h0l.3.27.27.24.24.22.21.21.19.19.17.18.3.33.25.3.21.28.18.27.15.27.12.27.1.28.08.3.06.32.05.36.03.41v.23s0,.25,0,.25v.27s-.02.3-.02.3l-.99,4.43h0l-.23.57-.28.57-.33.56-.39.55-.44.54-.49.52-.54.5-.59.48-.63.45-.67.42-.7.39-.73.36-.76.32-.78.29-.8.25-.81.21H11.61s1.51-6.76,1.51-6.76h6.13s10.14,0,10.14,0c1.55,0,2.89-1.07,3.23-2.59l.24-1.09c.33-1.47-.6-2.93-2.07-3.26-.2-.04-.39-.07-.6-.07h-9.36s1.52-6.78,1.52-6.78h9.64c1.82,0,3.41-1.26,3.8-3.04l.31-1.4c.24-1.05-.43-2.09-1.48-2.33-.14-.03-.28-.05-.43-.05h-14.63s1.44-6.42,1.44-6.42l.09-.4Z"/>
  <path class="cls-1" d="M63.1,57.7c2.22.31,3.77,2.37,3.46,4.59-.02.12-.04.23-.06.35l-2.77,11.96c-1.08,2.09-3.15,3.48-5.49,3.69h-7.16s4.2-18.14,4.2-18.14h-7.5s-5.73,24.74-5.73,24.74l7.47.14h7.93c6.71,0,12.54-4.62,14.06-11.16l2.67-11.52c1.16-5.03-1.97-10.06-7-11.22-.69-.16-1.4-.24-2.1-.24h-20.22s6.53,6.81,6.53,6.81"/>
  <path class="cls-1" d="M51.35,57.7h11.76"/>
  <path d="M97.1,62.47c-.52,2.54-2.76,4.36-5.35,4.36h-7.81s1.86-9.11,1.86-9.11h9.4c1.29,0,2.34,1.05,2.34,2.34,0,.16-.02.31-.05.47l-.4,1.94Z"/>
  <path class="cls-1" d="M82.6,73.4h9.75"/>
</svg>